<?xml version="1.0" encoding="utf-8"?>
<!-- Generator: Adobe Illustrator 26.0.3, SVG Export Plug-In . SVG Version: 6.00 Build 0)  -->
<svg version="1.1" id="Слой_1" xmlns="http://www.w3.org/2000/svg" xmlns:xlink="http://www.w3.org/1999/xlink" x="0px" y="0px"
	 viewBox="0 0 800 800" style="enable-background:new 0 0 800 800;" xml:space="preserve">
<style type="text/css">
	.st0{fill:#DA7256;}
	.st1{opacity:0.2;}
	.st2{fill:#231F20;}
	.st3{fill:#FFFFFF;}
</style>
<g id="Layer_1">
	<g>
		<circle class="st0" cx="400" cy="400" r="400"/>
	</g>
	<g class="st1">
		<path class="st2" d="M400,150c-151.2,0-275,123.8-275,275s123.8,275,275,275c43.8,0,87.5-10,126.2-30
			c12.5-6.2,17.5-21.2,11.2-33.8s-21.2-17.5-33.8-11.2c-32.5,16.2-66.2,25-102.5,25c-123.7,0-225-101.3-225-225s101.3-225,225-225
			s225,101.3,225,225c0,37.5-10,75-27.5,107.5c-22.5-17.5-55-52.5-55-106.2v-110c0-13.8-11.2-25-25-25c-13.7,0-25,11.2-25,25v1.2
			c-25-21.2-57.5-35-92.5-35c-78.8,0-142.5,63.8-142.5,142.5S321.2,567.5,400,567.5c46.2,0,87.5-22.5,113.8-57.5
			c28.8,52.5,77.5,78.8,80,80c11.2,6.2,25,2.5,32.5-7.5c32.5-46.2,48.8-100,48.8-157.5C675,273.8,551.2,150,400,150z M400,517.5
			c-51.2,0-92.5-41.2-92.5-92.5s41.2-92.5,92.5-92.5s92.5,41.2,92.5,92.5S451.2,517.5,400,517.5z"/>
	</g>
	<g>
		<path class="st3" d="M400,675c-151.2,0-275-123.8-275-275s123.8-275,275-275s275,123.8,275,275c0,56.2-17.5,111.3-48.8,157.5
			c-7.5,10-21.2,13.8-32.5,7.5c-3.8-2.5-101.2-52.5-101.2-163.8v-110c0-13.8,11.2-25,25-25c13.8,0,25,11.2,25,25v110
			c0,53.8,32.5,88.8,55,106.2C615,475,625,437.5,625,400c0-123.8-101.2-225-225-225S175,276.3,175,400s101.2,225,225,225
			c36.3,0,71.2-8.8,102.5-25c12.5-6.2,27.5-1.2,33.8,11.2s1.2,27.5-11.2,33.8C487.5,665,443.8,675,400,675z"/>
	</g>
	<g>
		<path class="st3" d="M400,307.5c51.2,0,92.5,41.2,92.5,92.5s-41.2,92.5-92.5,92.5s-92.5-41.2-92.5-92.5S348.8,307.5,400,307.5
			 M400,257.5c-78.8,0-142.5,63.8-142.5,142.5S321.2,542.5,400,542.5S542.5,478.8,542.5,400S478.8,257.5,400,257.5L400,257.5z"/>
	</g>
</g>
<g id="Layer_2">
</g>
</svg>
