<?xml version="1.0" encoding="utf-8"?>
<!-- Generator: Adobe Illustrator 26.0.3, SVG Export Plug-In . SVG Version: 6.00 Build 0)  -->
<svg version="1.1" id="Слой_1" xmlns="http://www.w3.org/2000/svg" xmlns:xlink="http://www.w3.org/1999/xlink" x="0px" y="0px"
	 viewBox="0 0 48 48" style="enable-background:new 0 0 48 48;" xml:space="preserve">
<style type="text/css">
	.st0{fill:#1976D2;}
	.st1{fill:#FFFFFF;}
</style>
<path class="st0" d="M24,0C10.7,0,0,10.7,0,24s10.7,24,24,24s24-10.7,24-24S37.3,0,24,0z"/>
<path class="st1" d="M38.3,16.8c0.1-0.2,0.1-0.3,0.1-0.5c0-0.4-0.3-0.8-1-0.8h-3.1c-0.8,0-1.2,0.5-1.4,1c0,0-2,4-4.2,6.7
	C27.9,24,27.5,24,27.1,24c-0.2,0-0.7-0.3-0.7-1v-6.2c0-0.8-0.2-1.2-0.9-1.2h-5.6c-0.5,0-0.7,0.4-0.7,0.8c0,0.8,1.1,1,1.2,3.2V24
	c0,1.1-0.2,1.2-0.6,1.2c-1.1,0-3.2-3.6-4.6-8.3c-0.3-0.9-0.6-1.3-1.4-1.3h-3.2c-0.9,0-1.1,0.4-1.1,0.9c0,0.9,0.7,5.5,4.6,10.9
	c2.9,3.9,6.6,6.1,9.9,6.1c2,0,2.2-0.5,2.2-1.3v-3.6c0-1,0.2-1.1,0.9-1.1c0.5,0,1.4,0.3,3.2,2.4c2.1,2.4,2.5,3.6,3.6,3.6h3.1
	c0.7,0,1.1-0.3,1.2-0.9c0-0.2,0-0.3-0.1-0.5c-0.2-0.7-1.3-2.4-2.6-4c-0.7-0.9-1.5-1.8-1.8-2.3c-0.2-0.3-0.3-0.5-0.3-0.7
	c0-0.2,0.1-0.4,0.3-0.7C33.9,24.5,37.9,18.8,38.3,16.8z"/>
</svg>
