<?xml version="1.0" encoding="utf-8"?>
<!-- Generator: Adobe Illustrator 26.0.3, SVG Export Plug-In . SVG Version: 6.00 Build 0)  -->
<svg version="1.1" id="Слой_1" xmlns="http://www.w3.org/2000/svg" xmlns:xlink="http://www.w3.org/1999/xlink" x="0px" y="0px"
	 viewBox="0 0 681.1 681.6" style="enable-background:new 0 0 681.1 681.6;" xml:space="preserve">
<style type="text/css">
	.st0{fill:#169C1D;}
	.st1{fill:#FFFFFF;}
</style>
<path class="st0" d="M574.3,281.1c-1-15.6-2.2-31.2-3.6-46.7c-1.3-15.2-2.7-30.5-4.4-45.7c-1.8-16-3.3-32.1-6.1-48
	c-1.9-10.7-8.2-17.4-19-19.1c-12.6-2-25.3-3.6-38-5.4c-4.3-0.6-6.2,1.1-6,5.5c0.5,13.7,2.7,27.1,4.9,40.6c0.4,2.5,2,4.1,3.9,5.6
	c9.8,7.7,16.6,18.6,19.1,30.8c6.5,29.5-12.1,58.6-41.6,65.2c-4.1,0.9-8.3,1.3-12.6,1.3c-2.7-0.1-5.3-0.3-7.9-0.6
	c-38-6.8-57.6-47.6-39.1-81.4c0.3-0.5,0.6-1.1,0.8-1.7c0.8-1.9,1.1-4,0.8-6c-0.9-5.9-1.6-11.9-2.5-17.8c-1.9-13-4.2-26-2.9-39.2
	c0.8-7.9,1-7.9-6.6-8.5c-2-0.2-4-0.7-5.9-0.7c-29.8-0.3-59.5-2.4-89.3-0.1c-5.8,0.3-11.4,2.8-15.4,7c-7.8,8-15.7,16-23.6,23.9
	l-19,18.9c-38.3,38.3-76.6,76.5-114.9,114.7c-34.9,34.8-69.6,69.7-104.4,104.7c-10.8,10.9-22.5,20.8-31.9,33
	c-13.1,17-11.7,43.2,2.9,58.4c14.2,14.7,28.6,29.2,43,43.7c14.4,14.5,29,28.9,43.4,43.3l35,34.9c9,9.1,18.1,18.1,27.1,27.1
	c15.4,15.4,30.8,30.8,46.2,46.2c4.2,4.2,8.7,8.3,14,11.1c18.6,10,41.4,6.3,57.4-9.5c13.6-13.5,27.2-26.9,40.5-40.6
	c5.2-5.3,10.4-10.6,15.6-15.9c5.8-5.8,11.6-11.6,17.4-17.4c15-14.8,29.9-29.8,44.9-44.6c11.9-11.8,23.5-24,35.5-35.7
	c17-16.7,33.5-33.8,50.6-50.3c11.7-11.3,23.1-23,34.6-34.5c10.5-10.5,21-21,31.5-31.6c5.6-5.6,11.2-11.1,16.8-16.6
	c4.6-4.4,7.6-10.2,8.5-16.5c2-13.2,1.8-26.5,2-39.8C576.2,309,575.2,295.1,574.3,281.1z"/>
<path class="st0" d="M560,0c46.8,2.2,82.4,22.8,105,64.6c14.2,26.3,17.5,54.7,15.7,84.1c-1.2,21.1-4.1,42.1-8.4,62.7
	c-3.7,17.4-8.7,34.5-15,51.2c-5.7,15.5-12.4,30.5-20,45.1c-4.5,8.4-10.1,15.6-21.3,15.3c-15.8-0.4-25.7-17.5-17.7-31.4
	c14.8-25.6,24.2-53.2,31.3-81.7c6.7-26.3,10-53.4,9.8-80.5c-0.3-24.4-7.4-46.4-24.4-64.2C589.1,38.6,548,34,517,54.3
	c-28.6,18.5-40.2,45.2-36.8,78.9c2.4,24.4,7,48.4,11.8,72.3c2.5,11.1-4.4,22.2-15.5,24.9c-10.6,2.7-22.3-3.6-24.8-14.7
	c-6.7-30-13.4-60.2-14.1-91.1C436.2,63.5,479.6,11.8,540,1.6C546.6,0.5,553.3-0.1,560,0z"/>
<path class="st1" d="M270.6,444.4c29.1-0.1,58.2,0.1,87.2-0.3c13.6-0.2,27.3-1.4,40.3-6.1c24.5-8.9,38.9-28.8,39.2-54.9
	c0.2-20.2,0.5-40.3-0.1-60.5c-0.7-20.3-9.9-36.6-26.7-48.1c-13.9-9.5-30.1-10.8-46.2-11.1c-22.8-0.4-45.6-0.1-68.4-0.1v-0.2h-69.6
	c-10.7,0-10.7,0-10.7,10.8c0,39.9,0,79.8,0,119.6c0,8.8-0.1,8.8-8.6,8.8c-8,0-16.1,0.1-24.1,0c-4.2-0.1-6.4,1.4-6.4,6
	c0.2,10,0.2,20,0,29.9c-0.1,4.5,1.9,6.2,6.3,6.1c6.1-0.1,12.1-0.1,18.2,0c15.8,0.1,14.4-2.1,14.6,15.4c0.1,4.8-1.8,6.6-6.6,6.5
	c-8.9-0.2-17.8,0-26.7,0c-4.1,0-5.9,1.7-5.8,5.9c0.1,10,0.1,19.9,0,29.9c-0.1,4.4,1.7,6.3,6.2,6.2c8.7-0.1,17.4,0.1,26-0.1
	c5.1-0.1,7,1.9,6.9,6.9c-0.2,10.2,0.1,20.4-0.1,30.6c-0.1,4.7,1.8,6.7,6.5,6.6c11.1-0.1,22.1-0.1,33.2,0c4.7,0.1,6.6-1.8,6.5-6.6
	c-0.2-10.2,0.1-20.4-0.1-30.6c-0.1-5,1.8-7.1,6.9-6.9c9.3,0.2,18.7-0.1,28,0.1c5.1,0.1,6.9-2,6.8-7c-0.2-9.5-0.2-19.1,0-28.6
	c0.1-4.8-2-6.6-6.6-6.5c-7.4,0.2-14.8,0.1-22.1,0c-14-0.1-12.8,1.3-12.8-13.1C261.8,444.7,262.1,444.4,270.6,444.4z M261.7,396.3
	c0.1-14.3,0-28.6,0-42.9c0-13.9,0.1-27.8-0.1-41.6c-0.1-5.1,1.9-6.7,6.9-6.7c32.1-0.3,64.2,0.8,96.3,1.6
	c19.7,0.5,23.4,4.5,25.5,24.1c1.7,15.1,2.1,30.3,0,45.4c-2.2,15.8-8.5,22.1-24.6,23.4c-32.7,2.7-65.4,3-98.2,3.1
	C263.1,402.6,261.7,400.6,261.7,396.3z"/>
</svg>
