<svg xmlns="http://www.w3.org/2000/svg" viewBox="0 0 477.13 750"><defs><style>.a{fill:#424242;}.b{fill:#ffd600;}.c{fill:#b26500;}.d{fill:#ffa000;}.e,.f,.i{fill:none;stroke-miterlimit:62.5;}.e{stroke:#b26500;}.e,.f{stroke-width:12.5px;}.f{stroke:#fff;}.g{fill:#82aec0;}.h{fill:#2f7889;}.i{stroke:#82aec0;stroke-linecap:round;stroke-width:24.98px;}.j{fill:#ffff8d;}.k{fill:#94d1e0;}</style></defs><ellipse class="a" cx="238.62" cy="705.44" rx="75.56" ry="44.56"/><path class="b" d="M238.63,0C106.87,0,0,97.94,0,218.69c0,31.5,9.5,65.19,23.44,94.87,19.56,41.75,40.87,72.63,47.12,84,17.38,31.63,14.88,64.94,19.69,85.81,9.06,39,36.19,53.13,148.31,53.13s136.25-13.44,146.32-49.38c6.87-24.43.18-51.12,17.5-82.68,6.25-11.38,31.68-49.07,51.31-90.88,13.94-29.69,23.44-63.37,23.44-94.87C477.25,97.94,370.38,0,238.63,0Z"/><ellipse class="c" cx="238.63" cy="513.31" rx="137.13" ry="27.87"/><ellipse class="c" cx="238.63" cy="513.31" rx="137.13" ry="27.87"/><ellipse class="d" cx="238.63" cy="513.31" rx="99.94" ry="12.87"/><path class="e" d="M171.75,329.81c-3.87,9.75-13.94,29.82-8.69,38.81,12.19,20.94,41.25,28.44,41.25,47.69,0,29.38-21.37,124.57-21.37,124.57"/><path class="e" d="M301.31,326.31s14,30,8.07,43.44c-4.44,10-31.13,26.12-34.57,28.81-15.94,12.5,5.25,142.38,5.25,142.38"/><path class="f" d="M171.75,329.81c21.5-42.5,32.56-139.5,5.25-134.56-46.06,8.31,10.69,167.69,38.62,149.37s62.57-149.06,20.07-149.56,2.87,166.63,31.75,148.07c22.81-14.69,78.5-147.88,32.75-147.88-38.94,0,1.19,131.06,1.19,131.06"/><path class="g" d="M375.44,519.12s-36,17.38-136.81,17.38-136.82-17.38-136.82-17.38-2.25,32.13,5.19,46.69c8.94,17.5,15.81,23.56,15.81,23.56l3.75,17.82-1.5,4.68a18.26,18.26,0,0,0,3.75,17.69l3.25,3.63,3.63,17.12-1.25,3.44a18.16,18.16,0,0,0,4.12,18.87l2.38,2.44,2.94,14s14.87,31.75,94.75,31.75,94.75-31.75,94.75-31.75l.25-1.19,1.62-1.62A11.49,11.49,0,0,0,338,674.06l-.94-2.44,3.88-18.5,6.81-7.18a11.58,11.58,0,0,0,1.94-13.19l-3.13-6.19L350.5,608l2.5-1.94c3.69-4.06,3.75-10.19,2.12-14.37a8.88,8.88,0,0,1,2.32-9.5,66.77,66.77,0,0,0,12.75-16.5C377.88,551.37,375.44,519.12,375.44,519.12Z"/><path class="h" d="M122.81,589.38l3.38,17.93c36.37-.18,84.94,1.63,178.12-13.18,16.82-3.82,37-11.38,14.69-8.25C319,585.81,233.44,594,122.81,589.38Z"/><path class="h" d="M135.31,650.44c40.25-.69,122.5-4.69,210.88-23.88L350.13,608c-92.44,21-179.38,24.75-218.44,25.25l3.62,17.19Z"/><path class="h" d="M340.56,653.06c-81.81,17.75-158.37,22.31-199.81,23.32l2.69,12.75s1.31,39.56,94.75,39.56,94.75-39.56,94.75-39.56S293.06,700.5,244,694.94a3.94,3.94,0,1,1-.06-7.88c29.31-3.87,64.31-9.62,92.75-15.5l3.87-18.5Z"/><path class="i" d="M102.25,519.12s40.37,17.38,136,17.38S375,519.12,375,519.12"/><path class="j" d="M150.38,39.5c24.43-6,50-3,67.5,18.25,4.93,6,8.75,13.13,9.62,20.87,1.75,14.94-7.5,29.07-18.5,39.44-31.37,29.63-75.94,44-96.19,84.88-4.75,9.56-8.5,19.87-15.75,27.69s-19.31,12.56-28.75,7.56c-5-2.63-8.43-7.56-11.25-12.5C39.31,194.06,40.63,153.75,56.25,121c17.19-35.87,54.88-71.87,94.13-81.5Z"/><path class="b" d="M128.94,549.56c-5.5-2.5-3.31-10.75,2.69-10.31,20.12,1.56,54.37,3.5,99.68,3.5a1098.6,1098.6,0,0,0,114.25-6.19,5.38,5.38,0,0,1,2.81,10.25c-18.87,8.88-53.43,19-112.68,19-57.82,0-89.69-8.56-106.75-16.25Z"/><path class="k" d="M163.25,612.69c-4.19,1.5-8.5,3.56-10.63,7.44a7.22,7.22,0,0,0-.87,4.68c.5,2.38,2.69,4.07,4.87,5.13,4.38,2.12,9.32,2.69,14.13,2.75,9.94.12,19.81-1.75,29.62-3.63a28.79,28.79,0,0,0,8.57-2.56c2.62-1.44,4.87-3.88,5.31-6.81.62-3.94-2.19-7.75-5.63-9.63-11.87-6.56-33.37-1.68-45.37,2.63Z"/><path class="k" d="M172.56,653.88c-4.18,1.5-8.5,3.56-10.62,7.43a7.26,7.26,0,0,0-.88,4.69c.5,2.38,2.69,4.06,4.88,5.13,4.37,2.12,9.31,2.68,14.12,2.75,9.94.12,19.81-1.75,29.63-3.63a28.81,28.81,0,0,0,8.56-2.56c2.62-1.44,4.87-3.88,5.31-6.81.63-3.94-2.19-7.75-5.62-9.63-11.88-6.5-33.44-1.62-45.38,2.63Z"/><path class="j" d="M151.19,501.25c5.68.56,11.68.06,16.5-3s7.87-9.31,5.93-14.69c-1-2.81-3.18-5.06-5.31-7.19-4.68-4.62-9.37-9.25-14-13.87-5.19-5.19-10.37-10.31-16-15-8.69-7.25-20.37-14.06-31.81-8.75-9.75,4.5-12.06,13.37-7.75,22.69,9.19,19.56,30.56,37.56,52.44,39.81Z"/></svg>