<?xml version="1.0" encoding="utf-8"?>
<!-- Generator: Adobe Illustrator 26.0.3, SVG Export Plug-In . SVG Version: 6.00 Build 0)  -->
<svg version="1.1" id="Capa_1" xmlns="http://www.w3.org/2000/svg" xmlns:xlink="http://www.w3.org/1999/xlink" x="0px" y="0px"
	 viewBox="0 0 800 800" style="enable-background:new 0 0 800 800;" xml:space="preserve">
<style type="text/css">
	.st0{fill:#00477F;stroke:#00477F;stroke-width:18;stroke-miterlimit:10;}
	.st1{fill:#00477F;}
	.st2{fill:#00477F;stroke:#00477F;stroke-width:19;stroke-miterlimit:10;}
</style>
<g>
	<g>
		<path class="st0" d="M637,775.5L574.5,563c-1.9-6.6-8.9-10.5-15.5-8.5c-6.6,1.9-10.4,8.9-8.5,15.5l17.3,59H232.1l17.3-59
			c2-6.6-1.8-13.6-8.5-15.5c-6.7-2-13.6,1.8-15.5,8.5L163,775.5c-2,6.6,1.8,13.6,8.5,15.5c1.2,0.4,2.4,0.5,3.5,0.5
			c5.4,0,10.4-3.5,12-9L224.8,654h350.4L613,782.6c1.6,5.4,6.6,9,12,9c1.2,0,2.4-0.2,3.5-0.5C635.1,789.1,638.9,782.1,637,775.5z"/>
	</g>
	<g>
		<path class="st1" d="M400,75c16.3,0,29.5-5.6,29.5-12.5v-50C429.5,5.6,416.3,0,400,0s-29.5,5.6-29.5,12.5v50
			C370.5,69.4,383.7,75,400,75z"/>
	</g>
</g>
<g>
	<g>
		<path class="st2" d="M137.5,487.5c-3.2,0-6.4-1.2-8.8-3.7c-4.9-4.9-4.9-12.8,0-17.7l144.8-144.8c14.6-14.6,38.4-14.6,53,0
			l77.1,77.1c4.9,4.9,12.8,4.9,17.7,0l232.3-232.3c4.9-4.9,12.8-4.9,17.7,0c4.9,4.9,4.9,12.8,0,17.7L439,416.2
			c-14.6,14.6-38.4,14.6-53,0L308.8,339c-4.9-4.9-12.8-4.9-17.7,0L146.3,483.8C143.9,486.3,140.7,487.5,137.5,487.5z"/>
	</g>
</g>
<g>
	<g>
		<path class="st2" d="M662.5,300c-6.9,0-12.5-5.6-12.5-12.5v-100H550c-6.9,0-12.5-5.6-12.5-12.5c0-6.9,5.6-12.5,12.5-12.5h112.5
			c6.9,0,12.5,5.6,12.5,12.5v112.5C675,294.4,669.4,300,662.5,300z"/>
	</g>
</g>
<g>
	<path class="st0" d="M750,65.2v465c0,12.4-10.1,22.5-22.5,22.5H72.5c-12.4,0-22.5-10.1-22.5-22.5V75.2c0-5.5,4.5-10,10-10H750
		 M762.5,40.2h-715C35.1,40.2,25,50.3,25,62.7v467.6c0,26.2,21.3,47.5,47.5,47.5h655.1c26.2,0,47.5-21.3,47.5-47.5V52.7
		C775,45.8,769.4,40.2,762.5,40.2L762.5,40.2z"/>
</g>
<g>
	<path class="st1" d="M12.5,80.5h775c6.9,0,12.5-5.6,12.5-12.5V43c0-6.9-5.6-12.5-12.5-12.5h-775C5.6,30.5,0,36.1,0,43v25
		C0,74.9,5.6,80.5,12.5,80.5z"/>
</g>
</svg>
