<svg xmlns="http://www.w3.org/2000/svg" viewBox="0 0 687.91 802.36"><defs><style>.a{fill:#f7dece;}.b{fill:#292f33;}.c{fill:#c1694f;}.d{fill:#2a6797;}.e{fill:#662113;}.f{fill:#eec2ad;}.g{fill:#4289c1;}.h{fill:#fec602;}.i{fill:#ffd255;}.j{fill:#edb400;}</style></defs><path class="a" d="M607.7,372.94c0-29.83-14.82-54-33.32-55V229.09l-346.85-6V318c-18.5,1-33.32,25.13-33.32,55s14.84,54,33.32,55v8.33a173.43,173.43,0,0,0,346.85,0v-8.35c18.5-1,33.32-25.12,33.32-54.95Z" transform="translate(-56.05)"/><path class="b" d="M401,124.51c-135.25,0-195.37,90.26-195.37,165.49s25.88,96.08,30.06,75.21c15-75.21,60.12-98.29,60.12-98.29,90.18,75.22,75.15,15,75.15,15,90.17,90.26,45.09,0,45.09,0,30.06,30.1,120.23,30.1,120.23,30.1a597.61,597.61,0,0,1,30,53.17c15,30.1,30.06,0,30.06-75.21S521.18,124.51,401,124.51Z" transform="translate(-56.05)"/><path class="c" d="M323.88,532.59H478S458.76,571.13,401,571.13s-77.07-38.54-77.07-38.54Z" transform="translate(-56.05)"/><path class="d" d="M169.27,648.2H631.75V802.36H169.27Z" transform="translate(-56.05)"/><path class="c" d="M420.22,484.41H381.68a9.64,9.64,0,0,1,0-19.27h38.54a9.64,9.64,0,1,1,0,19.27Z" transform="translate(-56.05)"/><path class="e" d="M323.88,417a19.27,19.27,0,0,1-19.27-19.27V378.43a19.27,19.27,0,1,1,38.53,0V397.7A19.26,19.26,0,0,1,323.88,417ZM478,417a19.27,19.27,0,0,1-19.27-19.27V378.43a19.27,19.27,0,0,1,38.54,0V397.7A19.27,19.27,0,0,1,478,417Z" transform="translate(-56.05)"/><path class="f" d="M115.22,456a25.4,25.4,0,0,1,24.44-13.37c.65-1.24,136.5,56.69,136.5,56.69l-24.43,29.81c-13.49,16.45-36.75,19.71-51.95,7.24l-32.32-26.49L123.91,488C112.62,482.23,108.73,467.94,115.22,456Z" transform="translate(-56.05)"/><path class="a" d="M60.69,397.41c-6.74,8.23-6.07,19.94,1.54,26.19L157,476.36l68.77,56.38c7.62,6.22,19.24,4.61,26-3.62l24.43-29.81-27.51-22.55-62.11-36.48L86.67,393.79s-19.24-4.61-26,3.62Z" transform="translate(-56.05)"/><path class="g" d="M237.1,464S614.73,630.77,624.58,635.14c22.93,10.19,60.77,32.76,60.77,70.87l-6.76,91.53a4.82,4.82,0,0,1-4.82,4.82h-64a4.74,4.74,0,0,1-2.68-.83L232.46,549.89a4.84,4.84,0,0,1-2.14-4V468.34a4.81,4.81,0,0,1,4.82-4.81A4.7,4.7,0,0,1,237.1,464Z" transform="translate(-56.05)"/><path class="d" d="M404.87,537.71l-15-6.24L265.33,572.11,293.89,592Zm100.26,44.63,19.4,8.58-99.72,88.52L351.18,679Z" transform="translate(-56.05)"/><path class="f" d="M684.78,456a25.42,25.42,0,0,0-24.44-13.37c-.65-1.24-136.5,56.69-136.5,56.69l24.43,29.81c13.49,16.45,36.75,19.71,52,7.24l32.32-26.49L676.09,488C687.38,482.23,691.27,467.94,684.78,456Z" transform="translate(-56.05)"/><path class="a" d="M739.31,397.41c6.74,8.23,6.07,19.94-1.54,26.19L643,476.36l-68.77,56.38c-7.62,6.22-19.24,4.61-26-3.62l-24.43-29.81,27.51-22.55,62.11-36.46,99.87-46.49s19.24-4.63,26,3.6Z" transform="translate(-56.05)"/><path class="g" d="M562.9,464S185.27,630.77,175.42,635.14c-22.93,10.19-60.77,32.76-60.77,70.87l6.76,91.53a4.82,4.82,0,0,0,4.82,4.82h64a4.74,4.74,0,0,0,2.68-.83L567.52,549.89a4.84,4.84,0,0,0,2.14-4V468.34a4.81,4.81,0,0,0-4.83-4.8A4.74,4.74,0,0,0,562.9,464Z" transform="translate(-56.05)"/><path class="h" d="M211.07,241.65V165S216.62,93.15,271,56.81L276.93,37s9.06-8.59,26.92-14.87l10.31,4.95,12.18-4.95L333,7.93a106.93,106.93,0,0,1,40-7.93l5.62,7.93s21.47-2.32,42-.66L427.42,0a113.8,113.8,0,0,1,38,7.93s3.3,8.58,4.63,11.56l17.84,8.25,8.26-4.95s16.18,5.94,26.42,16.84l8.59,17.17S580,87.18,586.63,166.46l3.3,75.31h0A18.05,18.05,0,0,1,608,259.83v34.9a6.61,6.61,0,0,1-7.38,6.57c-38-4.5-216.35-23.12-400.14,0A6.61,6.61,0,0,1,193,294.7V259.61a17.93,17.93,0,0,1,18-18Z" transform="translate(-56.05)"/><path class="i" d="M470,19.49,477.57,23s11,87.34-3.78,216.82C473.79,239.8,481.91,142.69,470,19.49Z" transform="translate(-56.05)"/><path class="j" d="M326.34,22.13l-7.32,3s1.06,107.23,16.42,214.7C335.43,239.8,323.15,116.26,326.34,22.13Z" transform="translate(-56.05)"/><path class="i" d="M531.13,56.81l5.75,4.29s6.69,89.57-11.37,178.69C525.51,239.8,538.06,148.2,531.13,56.81Z" transform="translate(-56.05)"/><path class="j" d="M270.92,56.81l-5.75,4.29s-6.69,89.57,11.37,178.69C276.54,239.8,264,148.2,270.92,56.81Z" transform="translate(-56.05)"/></svg>