<?xml version="1.0" encoding="utf-8"?>
<!-- Generator: Adobe Illustrator 26.0.3, SVG Export Plug-In . SVG Version: 6.00 Build 0)  -->
<svg version="1.1" id="Слой_1" xmlns="http://www.w3.org/2000/svg" xmlns:xlink="http://www.w3.org/1999/xlink" x="0px" y="0px"
	 viewBox="0 0 730.2 827.6" style="enable-background:new 0 0 730.2 827.6;" xml:space="preserve">
<style type="text/css">
	.st0{fill:#00477F;}
	.st1{fill:none;}
	.st2{fill:none;stroke:#00477F;stroke-width:40;stroke-miterlimit:10;}
	.st3{fill:#00477F;stroke:#00477F;stroke-width:40;stroke-miterlimit:10;}
	.st4{fill:none;stroke:#00477F;stroke-width:21;stroke-miterlimit:10;}
	.st5{fill:#FFFFFF;stroke:#00477F;stroke-width:40;stroke-miterlimit:10;}
	.st6{fill:#FFFFFF;}
</style>
<path class="st0" d="M385.9,489.6h-38.5c-5.3-0.2-9.5-4.6-9.3-9.9c0.2-5.1,4.2-9.2,9.3-9.3h38.5c5.3-0.2,9.8,4,9.9,9.3
	s-4,9.8-9.3,9.9C386.3,489.6,386.1,489.6,385.9,489.6z"/>
<path class="st0" d="M289.5,422.2c-10.6,0-19.3-8.6-19.3-19.3v-19.3c-0.2-10.6,8.2-19.5,18.8-19.7c10.6-0.2,19.5,8.2,19.7,18.8
	c0,0.3,0,0.6,0,0.9v19.3C308.8,413.6,300.2,422.2,289.5,422.2C289.6,422.2,289.5,422.2,289.5,422.2z M443.6,422.2
	c-10.6,0-19.3-8.6-19.3-19.3v-19.3c0-10.6,8.6-19.3,19.3-19.3c10.6,0,19.3,8.6,19.3,19.3v19.3C462.9,413.6,454.3,422.2,443.6,422.2
	C443.7,422.2,443.7,422.2,443.6,422.2z"/>
<path class="st1" d="M370.5,542.9l-15-6.2L231,577.3l28.6,19.9L370.5,542.9z M470.8,587.6l19.4,8.6l-99.7,88.5l-73.6-0.4
	L470.8,587.6z"/>
<path class="st2" d="M560.3,335c-4.4,45.1-16.4,59.4-28.3,35.4c-9.1-18.2-19.1-36-30-53.2c0,0-90.2,0-120.2-30.1
	c0,0,45.1,90.3-45.1,0c0,0,15,60.2-75.1-15c0,0-45.1,23.1-60.1,98.3c-3.3,16.7-20.6,6.7-27.4-36.6c-8.6,10-14.1,26.1-14.1,44.4
	c0,29.9,14.8,54,33.3,55v8.3c0.7,95.8,79,172.8,174.7,172.1c94.8-0.7,171.4-77.4,172.1-172.1v-8.3c18.5-1,33.3-25.1,33.3-55v-0.1
	C573.3,360.7,568.2,345.1,560.3,335z"/>
<path class="st3" d="M171.5,305.9c0.4,10.5,1.3,19.8,2.5,27.9C173.7,329.7,170.6,307.8,171.5,305.9z"/>
<path class="st4" d="M560.3,335c0.8-8.6,1.4-18.3,1.6-29C562.2,304.8,561.1,327.3,560.3,335z"/>
<path class="st5" d="M555.6,250.1l-3.3-71.3c-6.6-75.1-55.5-103.9-55.5-103.9l-8.6-16.3c-10.2-10.3-26.4-16-26.4-16l-8.3,4.7
	l-17.8-7.8c-1.3-2.8-4.6-11-4.6-11c-12.1-4.5-25-7.1-38-7.5l-6.8,6.9c-20.5-1.6-42,0.6-42,0.6l-5.6-7.5c-13.7,0.1-27.3,2.6-40,7.5
	L292,42.1l-12.2,4.7l-10.3-4.7c-17.9,5.9-26.9,14.1-26.9,14.1l-5.9,18.8c-54.4,34.4-59.9,102.5-59.9,102.5V250l-0.1,0
	c0,0-0.1,0-0.1,0c-9.9,0-17.9,7.7-17.9,17.1v33.2c0,0.3,0,0.6,0.1,0.9c0.5,3.4,3.8,5.8,7.4,5.4c1.8-0.2,3.6-0.4,5.3-0.6
	c7.3-0.8,14.5-1.6,21.7-2.3c146.4-14.5,285.1-5.4,346.9,0.3c9,0.8,16.3,1.6,21.9,2.2c1.6,0.2,3.1,0.3,4.4,0.5c0.3,0,0.5,0,0.8,0
	c3.7,0,6.6-2.8,6.6-6.3v-33.1c0,0,0,0,0,0C573.6,257.8,565.5,250.1,555.6,250.1z"/>
<path class="st5" d="M202.7,469.2c0,0,377.6,166.8,387.5,171.1c22.9,10.2,60.8,32.8,60.8,70.9l-6.8,91.5c0,2.7-2.2,4.8-4.8,4.8l0,0
	h-64c-1,0-1.9-0.3-2.7-0.8L198.1,555.1c-1.3-0.9-2.1-2.4-2.1-4v-77.5c0-2.7,2.2-4.8,4.8-4.8c0,0,0,0,0,0
	C201.5,468.8,202.1,468.9,202.7,469.2z"/>
<path class="st5" d="M528.5,469.2c0,0-377.6,166.8-387.5,171.1c-22.9,10.2-60.8,32.8-60.8,70.9l6.8,91.5c0,2.7,2.2,4.8,4.8,4.8h0h64
	c1,0,1.9-0.3,2.7-0.8l374.6-251.6c1.3-0.9,2.1-2.4,2.1-4v-77.5c0-2.7-2.2-4.8-4.8-4.8c0,0,0,0,0,0
	C529.8,468.8,529.1,468.9,528.5,469.2z"/>
<path class="st5" d="M705,402.6c6.7,8.2,6.1,19.9-1.5,26.2l-94.8,52.8L539.9,538c-7.6,6.2-19.2,4.6-26-3.6l-24.4-29.8L517,482
	l62.1-36.5l99.9-46.5C678.9,399,698.2,394.4,705,402.6L705,402.6z"/>
<path class="st5" d="M26.3,402.6c-6.7,8.2-6.1,19.9,1.5,26.2l94.8,52.8l68.8,56.4c7.6,6.2,19.2,4.6,26-3.6l24.4-29.8L214.3,482
	l-62.1-36.5L52.3,399C52.3,399,29.2,391.4,26.3,402.6L26.3,402.6z"/>
<polyline class="st6" points="178.4,285 178.4,274 209.5,269.9 204.7,282.4 "/>
</svg>
