<svg xmlns="http://www.w3.org/2000/svg" viewBox="0 0 499 373.12"><defs><style>.a{fill:#00477f;}</style></defs><path class="a" d="M466,66.88H33.67a33.33,33.33,0,1,1,0-66.66H466a33.33,33.33,0,0,1,0,66.66Z" transform="translate(-0.33 -0.22)"/><path class="a" d="M466,220.11H33.67a33.34,33.34,0,1,1,0-66.67H466a33.34,33.34,0,0,1,0,66.67Z" transform="translate(-0.33 -0.22)"/><path class="a" d="M466,373.33H33.67a33.33,33.33,0,1,1,0-66.66H466a33.33,33.33,0,0,1,0,66.66Z" transform="translate(-0.33 -0.22)"/></svg>