<svg xmlns="http://www.w3.org/2000/svg" viewBox="0 0 800 799.42"><defs><style>.a{fill:#00477f;}</style></defs><path class="a" d="M631,640.13c-27.62-22-113.69-64.45-134.92-69.33s-46.84,15.56-53.91,41-20.35,23.05-20.35,23.05-51-18.76-144.42-111.77-112.27-144-112.27-144-2.49-13.25,23-20.45,45.8-32.86,40.82-54.06S181.22,197.42,159.1,169.92s-65-13.32-74.43-6.46-109,70.12-79.08,186.65,94.29,209.79,165,280.23S334.72,764.72,451.37,794.26,630.93,724,637.73,714.56,658.56,662.21,631,640.13Z" transform="translate(0 -0.29)"/><path class="a" d="M386,295.59c15.47,7.58,40.07,21.66,68.59,50.16s42.57,53.11,50.15,68.56c8,16.25,13.86,19.53,18.62,18.42,7.86-1.83,10.47-3.93,11.2-20.32.6-14-6.08-55.6-48.56-98.08s-84.13-49.14-98.07-48.54c-16.4.7-18.48,3.32-20.3,11.21C366.49,281.74,369.72,287.64,386,295.59Z" transform="translate(0 -0.29)"/><path class="a" d="M410.86,131.64c-20,0-25.07,12.37-25.67,17.18-1.23,9.7,5.93,17.57,20.79,21.83,17,4.86,84.36,26.46,140.78,82.89s78.06,123.79,82.91,140.79c4.24,14.85,12.1,22,21.81,20.78,4.84-.58,17.21-5.64,17.18-25.65,0-15.84-9.66-98.78-84.35-173.5S426.66,131.62,410.86,131.64Z" transform="translate(0 -0.29)"/><path class="a" d="M683.29,117C576.31,10,463.44.82,444,.31,420.36-.29,411,10.34,411,21.23c0,9.28,9.5,18.82,23.66,22.47C455.88,49.14,540.1,62.41,639,161.3S751.14,344.42,756.62,365.68c3.63,14.12,13.18,23.65,22.45,23.65,10.91,0,21.53-9.38,20.9-33C799.48,336.88,790.27,224,683.29,117Z" transform="translate(0 -0.29)"/></svg>