<svg xmlns="http://www.w3.org/2000/svg" viewBox="0 0 736.77 736.82"><defs><style>.a{fill:#929190;}</style></defs><path class="a" d="M734.25,551.27a129.75,129.75,0,0,0-16.35-45.62l.32.6a18.83,18.83,0,0,0-13-8.83l-.1,0L480.87,461.8a17.74,17.74,0,0,0-2.92-.23A18.81,18.81,0,0,0,464.67,467h0a154.52,154.52,0,0,0-37.4,61.25l-.3,1.11c-100.37-41-178.47-119.13-218.55-216.85l-.95-2.63a154.88,154.88,0,0,0,62.33-37.72h0a18.73,18.73,0,0,0,5.5-13.28,17.93,17.93,0,0,0-.25-3l0,.1L239.5,31.72a18.79,18.79,0,0,0-8.83-13.09l-.07-.05A125.68,125.68,0,0,0,187.52,2.92l-.74-.09A97.06,97.06,0,0,0,163.2,0c-1.57,0-3.15,0-4.72.1h.22A159.81,159.81,0,0,0,0,158.87v0c.37,319,258.88,577.55,577.88,577.9h0A159.78,159.78,0,0,0,736.75,578.1v-.05c0-.63,0-1.35,0-2.1a124.22,124.22,0,0,0-2.65-25.53l.15.8ZM577.9,699.37C279.57,699,37.85,457.27,37.5,159v0A122.2,122.2,0,0,1,158.87,37.62h1.2a94.53,94.53,0,0,1,20.05,2.15l-.62-.12a98.86,98.86,0,0,1,25.05,7.52l-.63-.25,32.53,205A119.48,119.48,0,0,1,180,278.22l-.72.1a18.76,18.76,0,0,0-15.5,18.48,18.44,18.44,0,0,0,1.07,6.25l-.05-.13C209.15,429.73,307.22,527.78,431,571.17l3,.93a18.32,18.32,0,0,0,6.1,1,18.72,18.72,0,0,0,9.6-2.63l-.08,0a18.74,18.74,0,0,0,8.93-12.77l0-.13a120.47,120.47,0,0,1,26.53-57.4l-.15.18L690,533a101.85,101.85,0,0,1,7.43,25l.08.6a86.5,86.5,0,0,1,1.77,17.6c0,.6,0,1.22,0,1.82V578a122.15,122.15,0,0,1-121.3,121.43h0Z"/></svg>