<svg xmlns="http://www.w3.org/2000/svg" viewBox="0 0 601.86 599.22"><defs><style>.a{fill:#ffd255;}.b{fill:#fff;}.c{fill:#2a6797;}.d{fill:#fec602;}</style></defs><path class="a" d="M366.38,400.11l35.87-36.75h0C432,325.24,448.12,277.24,450,225.11c4.13-118.87-97.63-220.87-225-225-124.25-4-225,100.75-225,225s100.75,225,225,225a224.17,224.17,0,0,0,141.38-50Z"/><circle class="b" cx="225" cy="225.11" r="172"/><path class="a" d="M102.87,237.61a12.54,12.54,0,0,1-12.5-12.5c0-74.25,60.38-134.5,134.5-134.5a12.5,12.5,0,0,1,0,25,109.63,109.63,0,0,0-109.5,109.5A12.45,12.45,0,0,1,102.87,237.61Z"/><path class="c" d="M581.62,500,430,374.11l-8.5,8.5-19.25-19.25-35.87,36.75L385.25,419l-8.5,8.5,126,151.5a56.06,56.06,0,1,0,78.87-79Z"/><path class="d" d="M225,397.24c-94.88,0-172-77.13-172-172V370.11a224.56,224.56,0,0,0,313.38,30h0L397,368.74V225.11C397,320,319.88,397.24,225,397.24Z"/><path class="a" d="M-113.82,126.09"/><path class="a" d="M-110-90.73"/></svg>