<?xml version="1.0" encoding="utf-8"?>
<!-- Generator: Adobe Illustrator 26.0.3, SVG Export Plug-In . SVG Version: 6.00 Build 0)  -->
<svg version="1.1" id="Layer_1" xmlns="http://www.w3.org/2000/svg" xmlns:xlink="http://www.w3.org/1999/xlink" x="0px" y="0px"
	 viewBox="0 0 800 800" style="enable-background:new 0 0 800 800;" xml:space="preserve">
<style type="text/css">
	.st0{fill:#00477F;}
</style>
<path class="st0" d="M407.7,358.6h-99c-12.5,0-22.6-10.1-22.6-22.6V236c0-12.5,10.1-22.6,22.6-22.6s22.6,10.1,22.6,22.6v77.5h76.5
	c12.5,0,22.6,10.1,22.6,22.6C430.2,348.5,420.1,358.6,407.7,358.6z"/>
<path class="st0" d="M358.2,108.4H257c-29.9,0-54.2-24.3-54.2-54.2C202.8,24.3,227.1,0,257,0h101.3c29.9,0,54.2,24.3,54.2,54.2
	C412.5,84.1,388.1,108.4,358.2,108.4z M257,45.1c-4.9,0-9.1,4.2-9.1,9.1s4.2,9.1,9.1,9.1h101.3c4.9,0,9.1-4.2,9.1-9.1
	c0-4.9-4.2-9.1-9.1-9.1H257z"/>
<path class="st0" d="M540,800c-119.2,0-216.2-97-216.2-216.2s97-216.2,216.2-216.2c119.2,0,216.2,97,216.2,216.2S659.2,800,540,800z
	 M540,412.7c-94.3,0-171.1,76.8-171.1,171.1c0,94.3,76.7,171.1,171.1,171.1c94.3,0,171.1-76.8,171.1-171.1
	C711.1,489.4,634.3,412.7,540,412.7z"/>
<path class="st0" d="M251,593.1c-1.7,0-3.5-0.2-5.3-0.6c-56.6-13.6-107.9-46.3-144.4-92C64.2,454,43.8,395.6,43.8,336
	c0-145.5,118.3-263.8,263.8-263.8c62.8,0,123.6,22.4,171.3,63.2c47.1,40.3,78.7,96,88.8,156.9c2.1,12.3-6.2,23.9-18.5,26
	c-12.3,2-23.9-6.2-26-18.5C505.6,194,414.9,117.3,307.6,117.3C187,117.3,88.9,215.4,88.9,336c0,101.5,68.8,188.9,167.3,212.6
	c12.1,2.9,19.6,15.1,16.7,27.2C270.4,586.2,261.2,593.1,251,593.1z"/>
<path class="st0" d="M532.3,668.6c-32.4-1.1-58.8-17.8-58.8-35.1c0-9.2,8.1-22.7,18.4-22.7c11.3,0,20.5,15.9,40.5,19.4v-43.7
	c-24.8-9.4-54-21.1-54-55.6c0-34.3,25.4-50.7,54-54.8v-7.6c0-3.8,4.3-7.3,10.3-7.3c5.1,0,10.3,3.5,10.3,7.3v6.7
	c16.7,0.5,48.3,4.9,48.3,23.5c0,7.3-4.9,22.1-16.7,22.1c-8.9,0-14-8.6-31.6-10v39.4c24.6,9.2,53.2,21.9,53.2,58.3
	c0,33.5-21.6,53.7-53.2,58.8v7.8c0,3.8-5.1,7.3-10.3,7.3c-5.9,0-10.3-3.5-10.3-7.3L532.3,668.6L532.3,668.6z M535,543.9v-32.1
	c-12.1,2.4-17.3,8.6-17.3,15.1C517.7,534.7,524.7,539.6,535,543.9z M550.1,593.8V630c9.2-2.2,16.5-7.3,16.5-17
	C566.6,604.1,559.8,598.4,550.1,593.8z"/>
<path class="st0" d="M467.4,177.9c-5.8,0-11.5-2.2-16-6.6c-8.8-8.8-8.8-23.1,0-31.9l39.3-39.3c8.8-8.8,23.1-8.8,31.9,0
	c8.8,8.8,8.8,23.1,0,31.9l-39.3,39.3C479,175.7,473.2,177.9,467.4,177.9z"/>
</svg>
