<svg xmlns="http://www.w3.org/2000/svg" viewBox="0 0 373.44 321.74"><defs><style>.a{fill:#fff;}.b{fill:#00477f;}</style></defs><path class="a" d="M.33,321.74H373.77L187,0,47.6,240c15.7,0,30.59.09,45.47-.14,1.35,0,3.05-1.84,3.92-3.23,3.22-5.21,6.14-10.61,9.22-15.91q37.14-63.92,74.31-127.82c1.89-3.25,3.91-6.43,6.53-10.73l115.52,199c-2.62.15-3.92.28-5.22.28H171.62q-71.59,0-143.19,0c-3.31,0-5.42.86-7.13,4C16.42,294.24,11.13,302.88,6,311.63,4.22,314.73,2.5,317.88.33,321.74Z" transform="translate(-0.33)"/><path class="b" d="M.33,321.74c2.17-3.86,21-36.37,21-36.37l2.23-4,148.09,0s128.33-.13,131-.28l-115.52-199L95,240H47.6L187,0,373.77,321.74Z" transform="translate(-0.33)"/><path class="a" d="M184.63,264.15a11.68,11.68,0,0,1-.67,3c-.38.8-1.48,2-1.93,1.87-.95-.27-2.42-1.32-2.4-2a85.77,85.77,0,0,1,1-8.69,31.08,31.08,0,0,1,3.64,3.11C184.75,261.9,184.52,263,184.63,264.15Z" transform="translate(-0.33)"/><path class="b" d="M34.32,277.2H26.06V245.42H45.85v7.27H34.32Z" transform="translate(-0.33)"/><path class="b" d="M68.77,277.2V245.42h14c15.21.05,15.21,23.65,0,23.65H76.89v8.13ZM82.7,252.69c-1.9-.05-4,0-5.81,0v9.07H82.7C87.15,261.76,87.43,252.73,82.7,252.69Z" transform="translate(-0.33)"/><path class="b" d="M120.47,277.24h-2.91V245.42h8.31V261l16.07-15.7h2.95V277.2h-8.4V261.58Z" transform="translate(-0.33)"/><path class="b" d="M183.29,274.66c-8.22-.28-15-3.5-15-13.4s6.72-13,14.93-13.3v-2.67h7.81V248c8.22.28,14.94,3.45,14.94,13.3s-6.77,13.12-15,13.4v2.67h-7.72Zm.09-7.49V255.41c-3.5.14-6.76,1.32-6.76,5.85S180.07,267,183.38,267.17Zm7.54-11.76v11.76c3.31-.19,6.76-1.37,6.76-5.91S194.41,255.55,190.92,255.41Z" transform="translate(-0.33)"/></svg>